<?xml version="1.0" encoding="utf-8"?>
<!-- Svg Vector Icons : http://www.onlinewebfonts.com/icon -->
<!DOCTYPE svg PUBLIC "-//W3C//DTD SVG 1.1//EN" "http://www.w3.org/Graphics/SVG/1.1/DTD/svg11.dtd">
<svg version="1.1" xmlns="http://www.w3.org/2000/svg" xmlns:xlink="http://www.w3.org/1999/xlink" x="0px" y="0px" viewBox="0 0 1000 1000" enable-background="new 0 0 1000 1000" xml:space="preserve">
<metadata> Svg Vector Icons : http://www.onlinewebfonts.com/icon </metadata>
<g><g transform="translate(0.000000,511.000000) scale(0.100000,-0.100000)"><path d="M4613,4998.8c-1695.4-213.9-3019.9-1597.3-3122-3263.3c-39.2-626,82.4-1248,349.3-1789.6c58.9-117.7,688.8-1098.9,1575.7-2452.8c1163.6-1775.9,1489.4-2260.6,1530.6-2274.3c33.4-11.8,72.6-11.8,106,0c41.2,13.7,368.9,500.4,1530.6,2274.3C7503.4-1103.9,8098-175.7,8158.8-52.1c400.3,816.3,467,1771.9,186.4,2631.4c-404.2,1234.3-1469.7,2152.6-2776.6,2392C5370.4,5006.6,4811.2,5022.4,4613,4998.8z M5343,4684.8c404.2-47.1,710.3-133.4,1063.5-304.2C7315,3947,7946.9,3122.9,8152.9,2104.4c49-251.2,51-965.4,0-1206.8c-54.9-266.9-166.8-596.5-276.7-810.4c-86.3-170.7-2798.2-4338.6-2862.9-4401.4c-17.7-17.7-355.2,484.7-1397.1,2074.1C2860.7-1086.2,2193.5-46.2,2132.7,69.6c-115.8,225.7-229.6,551.4-286.5,828.1c-54.9,262.9-49.1,979.2,9.8,1250c157,718.2,527.9,1352,1049.8,1789.6c525.9,439.6,1075.3,669.1,1809.2,755.5C4846.5,4706.4,5176.2,4702.5,5343,4684.8z"/><path d="M4754.3,3360.3c-712.3-129.5-1246-761.4-1246-1471.7c0-737.8,574.9-1383.4,1322.6-1481.5c608.3-82.4,1250,284.5,1522.7,869.3c410.1,875.2-145.2,1911.3-1118.5,2085.9C5054.5,3393.7,4934.8,3393.7,4754.3,3360.3z M5401.8,3001.2c478.8-164.8,775.1-590.6,775.1-1112.6c0-543.6-329.7-985.1-853.6-1140.1c-160.9-47.1-486.6-47.1-647.5,0c-302.2,90.3-578.9,306.1-712.3,555.3c-184.5,349.3-186.4,820.2-2,1163.6C4226.4,2963.9,4842.6,3193.5,5401.8,3001.2z"/></g></g>
</svg>